<mxfile host="app.diagrams.net" agent="Mozilla/5.0 (Windows NT 10.0; Win64; x64) AppleWebKit/537.36 (KHTML, like Gecko) Chrome/139.0.0.0 Safari/537.36" version="28.1.2">
  <diagram name="Página-1" id="98qfE3BdNuw4_5_PNHww">
    <mxGraphModel dx="2316" dy="1400" grid="1" gridSize="10" guides="1" tooltips="1" connect="1" arrows="1" fold="1" page="1" pageScale="1" pageWidth="6000" pageHeight="4000" math="0" shadow="0">
      <root>
        <mxCell id="0" />
        <mxCell id="1" parent="0" />
        <mxCell id="ijTgKgx0f9xJTF1soomq-8" style="edgeStyle=orthogonalEdgeStyle;rounded=0;orthogonalLoop=1;jettySize=auto;html=1;entryX=1;entryY=0.5;entryDx=0;entryDy=0;" edge="1" parent="1" source="ijTgKgx0f9xJTF1soomq-2" target="ijTgKgx0f9xJTF1soomq-3">
          <mxGeometry relative="1" as="geometry" />
        </mxCell>
        <mxCell id="ijTgKgx0f9xJTF1soomq-9" style="edgeStyle=orthogonalEdgeStyle;rounded=0;orthogonalLoop=1;jettySize=auto;html=1;exitX=0;exitY=0.5;exitDx=0;exitDy=0;entryX=1;entryY=0.5;entryDx=0;entryDy=0;" edge="1" parent="1" source="ijTgKgx0f9xJTF1soomq-2" target="ijTgKgx0f9xJTF1soomq-4">
          <mxGeometry relative="1" as="geometry" />
        </mxCell>
        <mxCell id="ijTgKgx0f9xJTF1soomq-15" style="edgeStyle=orthogonalEdgeStyle;rounded=0;orthogonalLoop=1;jettySize=auto;html=1;exitX=0;exitY=0.5;exitDx=0;exitDy=0;entryX=1;entryY=0.5;entryDx=0;entryDy=0;" edge="1" parent="1" source="ijTgKgx0f9xJTF1soomq-2" target="ijTgKgx0f9xJTF1soomq-13">
          <mxGeometry relative="1" as="geometry" />
        </mxCell>
        <mxCell id="ijTgKgx0f9xJTF1soomq-21" style="edgeStyle=orthogonalEdgeStyle;rounded=0;orthogonalLoop=1;jettySize=auto;html=1;exitX=0;exitY=0.5;exitDx=0;exitDy=0;entryX=1;entryY=0.5;entryDx=0;entryDy=0;" edge="1" parent="1" source="ijTgKgx0f9xJTF1soomq-2" target="ijTgKgx0f9xJTF1soomq-20">
          <mxGeometry relative="1" as="geometry" />
        </mxCell>
        <mxCell id="ijTgKgx0f9xJTF1soomq-95" style="edgeStyle=orthogonalEdgeStyle;rounded=0;orthogonalLoop=1;jettySize=auto;html=1;exitX=0.5;exitY=1;exitDx=0;exitDy=0;entryX=0.5;entryY=0;entryDx=0;entryDy=0;" edge="1" parent="1" source="ijTgKgx0f9xJTF1soomq-2" target="ijTgKgx0f9xJTF1soomq-91">
          <mxGeometry relative="1" as="geometry" />
        </mxCell>
        <mxCell id="ijTgKgx0f9xJTF1soomq-140" style="edgeStyle=orthogonalEdgeStyle;rounded=0;orthogonalLoop=1;jettySize=auto;html=1;exitX=0.5;exitY=0;exitDx=0;exitDy=0;entryX=0;entryY=0.5;entryDx=0;entryDy=0;fillColor=#6d8764;strokeColor=#3A5431;" edge="1" parent="1" source="ijTgKgx0f9xJTF1soomq-2" target="ijTgKgx0f9xJTF1soomq-138">
          <mxGeometry relative="1" as="geometry" />
        </mxCell>
        <mxCell id="ijTgKgx0f9xJTF1soomq-2" value="&lt;font style=&quot;font-size: 18px;&quot;&gt;Tarjeta de débito&lt;/font&gt;" style="rounded=0;whiteSpace=wrap;html=1;" vertex="1" parent="1">
          <mxGeometry x="2950" y="1860" width="120" height="60" as="geometry" />
        </mxCell>
        <mxCell id="ijTgKgx0f9xJTF1soomq-3" value="&lt;font style=&quot;font-size: 18px;&quot;&gt;Código seguridad&lt;/font&gt;" style="ellipse;whiteSpace=wrap;html=1;" vertex="1" parent="1">
          <mxGeometry x="2740" y="1800" width="120" height="80" as="geometry" />
        </mxCell>
        <mxCell id="ijTgKgx0f9xJTF1soomq-4" value="&lt;font style=&quot;font-size: 18px;&quot;&gt;Número tarjeta&lt;/font&gt;" style="ellipse;whiteSpace=wrap;html=1;" vertex="1" parent="1">
          <mxGeometry x="2740" y="1910" width="120" height="80" as="geometry" />
        </mxCell>
        <mxCell id="ijTgKgx0f9xJTF1soomq-18" style="edgeStyle=orthogonalEdgeStyle;rounded=0;orthogonalLoop=1;jettySize=auto;html=1;exitX=0;exitY=0.5;exitDx=0;exitDy=0;entryX=1;entryY=0.5;entryDx=0;entryDy=0;" edge="1" parent="1" source="ijTgKgx0f9xJTF1soomq-13" target="ijTgKgx0f9xJTF1soomq-16">
          <mxGeometry relative="1" as="geometry" />
        </mxCell>
        <mxCell id="ijTgKgx0f9xJTF1soomq-19" style="edgeStyle=orthogonalEdgeStyle;rounded=0;orthogonalLoop=1;jettySize=auto;html=1;exitX=0;exitY=0.5;exitDx=0;exitDy=0;entryX=1;entryY=0.5;entryDx=0;entryDy=0;" edge="1" parent="1" source="ijTgKgx0f9xJTF1soomq-13" target="ijTgKgx0f9xJTF1soomq-17">
          <mxGeometry relative="1" as="geometry" />
        </mxCell>
        <mxCell id="ijTgKgx0f9xJTF1soomq-13" value="&lt;font style=&quot;font-size: 18px;&quot;&gt;Fecha&lt;/font&gt;" style="ellipse;shape=doubleEllipse;whiteSpace=wrap;html=1;" vertex="1" parent="1">
          <mxGeometry x="2730" y="2025" width="130" height="70" as="geometry" />
        </mxCell>
        <mxCell id="ijTgKgx0f9xJTF1soomq-16" value="&lt;font style=&quot;font-size: 18px;&quot;&gt;Elaborador&lt;/font&gt;" style="ellipse;whiteSpace=wrap;html=1;" vertex="1" parent="1">
          <mxGeometry x="2570" y="2020" width="120" height="80" as="geometry" />
        </mxCell>
        <mxCell id="ijTgKgx0f9xJTF1soomq-17" value="&lt;font style=&quot;font-size: 18px;&quot;&gt;Vencimiento&lt;/font&gt;" style="ellipse;whiteSpace=wrap;html=1;" vertex="1" parent="1">
          <mxGeometry x="2570" y="2120" width="120" height="80" as="geometry" />
        </mxCell>
        <mxCell id="ijTgKgx0f9xJTF1soomq-20" value="&lt;font style=&quot;font-size: 18px;&quot;&gt;Tipo&lt;/font&gt;" style="ellipse;whiteSpace=wrap;html=1;" vertex="1" parent="1">
          <mxGeometry x="2740" y="1690" width="120" height="80" as="geometry" />
        </mxCell>
        <mxCell id="ijTgKgx0f9xJTF1soomq-38" style="edgeStyle=orthogonalEdgeStyle;rounded=0;orthogonalLoop=1;jettySize=auto;html=1;exitX=0.5;exitY=1;exitDx=0;exitDy=0;entryX=0.5;entryY=0;entryDx=0;entryDy=0;" edge="1" parent="1" source="ijTgKgx0f9xJTF1soomq-31" target="ijTgKgx0f9xJTF1soomq-34">
          <mxGeometry relative="1" as="geometry" />
        </mxCell>
        <mxCell id="ijTgKgx0f9xJTF1soomq-39" style="edgeStyle=orthogonalEdgeStyle;rounded=0;orthogonalLoop=1;jettySize=auto;html=1;exitX=0.5;exitY=1;exitDx=0;exitDy=0;entryX=0.5;entryY=0;entryDx=0;entryDy=0;" edge="1" parent="1" source="ijTgKgx0f9xJTF1soomq-31" target="ijTgKgx0f9xJTF1soomq-35">
          <mxGeometry relative="1" as="geometry" />
        </mxCell>
        <mxCell id="ijTgKgx0f9xJTF1soomq-40" style="edgeStyle=orthogonalEdgeStyle;rounded=0;orthogonalLoop=1;jettySize=auto;html=1;exitX=0.5;exitY=1;exitDx=0;exitDy=0;entryX=0.5;entryY=0;entryDx=0;entryDy=0;" edge="1" parent="1" source="ijTgKgx0f9xJTF1soomq-31" target="ijTgKgx0f9xJTF1soomq-36">
          <mxGeometry relative="1" as="geometry" />
        </mxCell>
        <mxCell id="ijTgKgx0f9xJTF1soomq-41" style="edgeStyle=orthogonalEdgeStyle;rounded=0;orthogonalLoop=1;jettySize=auto;html=1;exitX=0.5;exitY=1;exitDx=0;exitDy=0;entryX=0.5;entryY=0;entryDx=0;entryDy=0;" edge="1" parent="1" source="ijTgKgx0f9xJTF1soomq-31" target="ijTgKgx0f9xJTF1soomq-37">
          <mxGeometry relative="1" as="geometry" />
        </mxCell>
        <mxCell id="ijTgKgx0f9xJTF1soomq-94" style="edgeStyle=orthogonalEdgeStyle;rounded=0;orthogonalLoop=1;jettySize=auto;html=1;exitX=0.5;exitY=0;exitDx=0;exitDy=0;entryX=0;entryY=0.5;entryDx=0;entryDy=0;" edge="1" parent="1" source="ijTgKgx0f9xJTF1soomq-31" target="ijTgKgx0f9xJTF1soomq-91">
          <mxGeometry relative="1" as="geometry" />
        </mxCell>
        <mxCell id="ijTgKgx0f9xJTF1soomq-31" value="" style="rounded=0;whiteSpace=wrap;html=1;" vertex="1" parent="1">
          <mxGeometry x="2945" y="2150" width="130" height="70" as="geometry" />
        </mxCell>
        <mxCell id="ijTgKgx0f9xJTF1soomq-33" value="&lt;font style=&quot;font-size: 18px;&quot;&gt;Movimiento&lt;/font&gt;" style="rounded=0;whiteSpace=wrap;html=1;" vertex="1" parent="1">
          <mxGeometry x="2950" y="2155" width="120" height="60" as="geometry" />
        </mxCell>
        <mxCell id="ijTgKgx0f9xJTF1soomq-34" value="&lt;font style=&quot;font-size: 18px;&quot;&gt;Destino&lt;/font&gt;" style="ellipse;whiteSpace=wrap;html=1;" vertex="1" parent="1">
          <mxGeometry x="2740" y="2300" width="120" height="80" as="geometry" />
        </mxCell>
        <mxCell id="ijTgKgx0f9xJTF1soomq-35" value="&lt;span style=&quot;font-size: 18px;&quot;&gt;Origen&lt;/span&gt;" style="ellipse;whiteSpace=wrap;html=1;" vertex="1" parent="1">
          <mxGeometry x="2880" y="2300" width="120" height="80" as="geometry" />
        </mxCell>
        <mxCell id="ijTgKgx0f9xJTF1soomq-36" value="&lt;font style=&quot;font-size: 18px;&quot;&gt;ID&lt;/font&gt;" style="ellipse;whiteSpace=wrap;html=1;" vertex="1" parent="1">
          <mxGeometry x="3020" y="2300" width="120" height="80" as="geometry" />
        </mxCell>
        <mxCell id="ijTgKgx0f9xJTF1soomq-37" value="&lt;font style=&quot;font-size: 18px;&quot;&gt;Monto&lt;/font&gt;" style="ellipse;whiteSpace=wrap;html=1;" vertex="1" parent="1">
          <mxGeometry x="3160" y="2300" width="120" height="80" as="geometry" />
        </mxCell>
        <mxCell id="ijTgKgx0f9xJTF1soomq-44" style="edgeStyle=orthogonalEdgeStyle;rounded=0;orthogonalLoop=1;jettySize=auto;html=1;exitX=0;exitY=0.5;exitDx=0;exitDy=0;entryX=1;entryY=0.5;entryDx=0;entryDy=0;" edge="1" parent="1" source="ijTgKgx0f9xJTF1soomq-42" target="ijTgKgx0f9xJTF1soomq-43">
          <mxGeometry relative="1" as="geometry" />
        </mxCell>
        <mxCell id="ijTgKgx0f9xJTF1soomq-96" style="edgeStyle=orthogonalEdgeStyle;rounded=0;orthogonalLoop=1;jettySize=auto;html=1;exitX=0.5;exitY=1;exitDx=0;exitDy=0;entryX=1;entryY=0.5;entryDx=0;entryDy=0;" edge="1" parent="1" source="ijTgKgx0f9xJTF1soomq-42" target="ijTgKgx0f9xJTF1soomq-91">
          <mxGeometry relative="1" as="geometry" />
        </mxCell>
        <mxCell id="ijTgKgx0f9xJTF1soomq-118" style="edgeStyle=orthogonalEdgeStyle;rounded=0;orthogonalLoop=1;jettySize=auto;html=1;exitX=0.5;exitY=0;exitDx=0;exitDy=0;entryX=0.5;entryY=1;entryDx=0;entryDy=0;fillColor=#e51400;strokeColor=#B20000;" edge="1" parent="1" source="ijTgKgx0f9xJTF1soomq-42" target="ijTgKgx0f9xJTF1soomq-113">
          <mxGeometry relative="1" as="geometry">
            <Array as="points">
              <mxPoint x="3370" y="1860" />
            </Array>
          </mxGeometry>
        </mxCell>
        <mxCell id="ijTgKgx0f9xJTF1soomq-119" style="edgeStyle=orthogonalEdgeStyle;rounded=0;orthogonalLoop=1;jettySize=auto;html=1;exitX=0.5;exitY=0;exitDx=0;exitDy=0;entryX=0.5;entryY=1;entryDx=0;entryDy=0;fillColor=#e51400;strokeColor=#B20000;" edge="1" parent="1" source="ijTgKgx0f9xJTF1soomq-42" target="ijTgKgx0f9xJTF1soomq-114">
          <mxGeometry relative="1" as="geometry">
            <Array as="points">
              <mxPoint x="3370" y="1860" />
              <mxPoint x="3370" y="1760" />
              <mxPoint x="3240" y="1760" />
            </Array>
          </mxGeometry>
        </mxCell>
        <mxCell id="ijTgKgx0f9xJTF1soomq-120" style="edgeStyle=orthogonalEdgeStyle;rounded=0;orthogonalLoop=1;jettySize=auto;html=1;exitX=0.5;exitY=0;exitDx=0;exitDy=0;entryX=0.5;entryY=1;entryDx=0;entryDy=0;fillColor=#e51400;strokeColor=#B20000;" edge="1" parent="1" source="ijTgKgx0f9xJTF1soomq-42" target="ijTgKgx0f9xJTF1soomq-115">
          <mxGeometry relative="1" as="geometry">
            <Array as="points">
              <mxPoint x="3370" y="1860" />
              <mxPoint x="3370" y="1760" />
              <mxPoint x="3110" y="1760" />
            </Array>
          </mxGeometry>
        </mxCell>
        <mxCell id="ijTgKgx0f9xJTF1soomq-121" style="edgeStyle=orthogonalEdgeStyle;rounded=0;orthogonalLoop=1;jettySize=auto;html=1;exitX=0.5;exitY=0;exitDx=0;exitDy=0;entryX=0.5;entryY=1;entryDx=0;entryDy=0;fillColor=#e51400;strokeColor=#B20000;" edge="1" parent="1" source="ijTgKgx0f9xJTF1soomq-42" target="ijTgKgx0f9xJTF1soomq-116">
          <mxGeometry relative="1" as="geometry">
            <Array as="points">
              <mxPoint x="3370" y="1860" />
              <mxPoint x="3370" y="1760" />
              <mxPoint x="2975" y="1760" />
            </Array>
          </mxGeometry>
        </mxCell>
        <mxCell id="ijTgKgx0f9xJTF1soomq-122" style="edgeStyle=orthogonalEdgeStyle;rounded=0;orthogonalLoop=1;jettySize=auto;html=1;exitX=0.5;exitY=0;exitDx=0;exitDy=0;entryX=0.5;entryY=1;entryDx=0;entryDy=0;fillColor=#e51400;strokeColor=#B20000;" edge="1" parent="1" source="ijTgKgx0f9xJTF1soomq-42" target="ijTgKgx0f9xJTF1soomq-112">
          <mxGeometry relative="1" as="geometry">
            <Array as="points">
              <mxPoint x="3370" y="1860" />
              <mxPoint x="3370" y="1760" />
              <mxPoint x="3500" y="1760" />
            </Array>
          </mxGeometry>
        </mxCell>
        <mxCell id="ijTgKgx0f9xJTF1soomq-127" style="edgeStyle=orthogonalEdgeStyle;rounded=0;orthogonalLoop=1;jettySize=auto;html=1;exitX=1;exitY=0.5;exitDx=0;exitDy=0;entryX=0;entryY=0.5;entryDx=0;entryDy=0;" edge="1" parent="1" source="ijTgKgx0f9xJTF1soomq-42" target="ijTgKgx0f9xJTF1soomq-124">
          <mxGeometry relative="1" as="geometry">
            <Array as="points">
              <mxPoint x="3480" y="1910" />
              <mxPoint x="3545" y="1910" />
              <mxPoint x="3545" y="1975" />
            </Array>
          </mxGeometry>
        </mxCell>
        <mxCell id="ijTgKgx0f9xJTF1soomq-142" style="edgeStyle=orthogonalEdgeStyle;rounded=0;orthogonalLoop=1;jettySize=auto;html=1;exitX=1;exitY=0;exitDx=0;exitDy=0;entryX=0.5;entryY=1;entryDx=0;entryDy=0;" edge="1" parent="1" source="ijTgKgx0f9xJTF1soomq-42" target="ijTgKgx0f9xJTF1soomq-138">
          <mxGeometry relative="1" as="geometry">
            <Array as="points">
              <mxPoint x="3480" y="1870" />
              <mxPoint x="3675" y="1870" />
            </Array>
          </mxGeometry>
        </mxCell>
        <mxCell id="ijTgKgx0f9xJTF1soomq-42" value="&lt;font style=&quot;font-size: 18px;&quot;&gt;Cta. corriente&lt;/font&gt;" style="rounded=0;whiteSpace=wrap;html=1;" vertex="1" parent="1">
          <mxGeometry x="3360" y="1860" width="120" height="60" as="geometry" />
        </mxCell>
        <mxCell id="ijTgKgx0f9xJTF1soomq-45" style="edgeStyle=orthogonalEdgeStyle;rounded=0;orthogonalLoop=1;jettySize=auto;html=1;exitX=0;exitY=0.5;exitDx=0;exitDy=0;entryX=1;entryY=0.5;entryDx=0;entryDy=0;" edge="1" parent="1" source="ijTgKgx0f9xJTF1soomq-43" target="ijTgKgx0f9xJTF1soomq-2">
          <mxGeometry relative="1" as="geometry" />
        </mxCell>
        <mxCell id="ijTgKgx0f9xJTF1soomq-43" value="&lt;font style=&quot;font-size: 18px;&quot;&gt;Tiene&lt;/font&gt;" style="rhombus;whiteSpace=wrap;html=1;" vertex="1" parent="1">
          <mxGeometry x="3180" y="1850" width="80" height="80" as="geometry" />
        </mxCell>
        <mxCell id="ijTgKgx0f9xJTF1soomq-85" style="edgeStyle=orthogonalEdgeStyle;rounded=0;orthogonalLoop=1;jettySize=auto;html=1;exitX=1;exitY=0.5;exitDx=0;exitDy=0;entryX=0;entryY=0.5;entryDx=0;entryDy=0;" edge="1" parent="1" source="ijTgKgx0f9xJTF1soomq-52" target="ijTgKgx0f9xJTF1soomq-83">
          <mxGeometry relative="1" as="geometry" />
        </mxCell>
        <mxCell id="ijTgKgx0f9xJTF1soomq-86" style="edgeStyle=orthogonalEdgeStyle;rounded=0;orthogonalLoop=1;jettySize=auto;html=1;exitX=1;exitY=0.5;exitDx=0;exitDy=0;entryX=0;entryY=0.5;entryDx=0;entryDy=0;" edge="1" parent="1" source="ijTgKgx0f9xJTF1soomq-52" target="ijTgKgx0f9xJTF1soomq-84">
          <mxGeometry relative="1" as="geometry" />
        </mxCell>
        <mxCell id="ijTgKgx0f9xJTF1soomq-97" style="edgeStyle=orthogonalEdgeStyle;rounded=0;orthogonalLoop=1;jettySize=auto;html=1;exitX=0;exitY=0.5;exitDx=0;exitDy=0;entryX=0.5;entryY=1;entryDx=0;entryDy=0;" edge="1" parent="1" source="ijTgKgx0f9xJTF1soomq-52" target="ijTgKgx0f9xJTF1soomq-91">
          <mxGeometry relative="1" as="geometry" />
        </mxCell>
        <mxCell id="ijTgKgx0f9xJTF1soomq-104" style="edgeStyle=orthogonalEdgeStyle;rounded=0;orthogonalLoop=1;jettySize=auto;html=1;exitX=0.5;exitY=1;exitDx=0;exitDy=0;entryX=0.5;entryY=0;entryDx=0;entryDy=0;" edge="1" parent="1" source="ijTgKgx0f9xJTF1soomq-52" target="ijTgKgx0f9xJTF1soomq-98">
          <mxGeometry relative="1" as="geometry" />
        </mxCell>
        <mxCell id="ijTgKgx0f9xJTF1soomq-130" style="edgeStyle=orthogonalEdgeStyle;rounded=0;orthogonalLoop=1;jettySize=auto;html=1;exitX=0.5;exitY=0;exitDx=0;exitDy=0;entryX=0;entryY=0.5;entryDx=0;entryDy=0;" edge="1" parent="1" source="ijTgKgx0f9xJTF1soomq-52" target="ijTgKgx0f9xJTF1soomq-129">
          <mxGeometry relative="1" as="geometry" />
        </mxCell>
        <mxCell id="ijTgKgx0f9xJTF1soomq-52" value="&lt;font style=&quot;font-size: 18px;&quot;&gt;Transacciones&lt;/font&gt;" style="rounded=0;whiteSpace=wrap;html=1;" vertex="1" parent="1">
          <mxGeometry x="3360" y="2155" width="120" height="60" as="geometry" />
        </mxCell>
        <mxCell id="ijTgKgx0f9xJTF1soomq-83" value="&lt;font style=&quot;font-size: 18px;&quot;&gt;ID&lt;/font&gt;" style="ellipse;whiteSpace=wrap;html=1;" vertex="1" parent="1">
          <mxGeometry x="3560" y="2220" width="120" height="80" as="geometry" />
        </mxCell>
        <mxCell id="ijTgKgx0f9xJTF1soomq-84" value="&lt;font style=&quot;font-size: 18px;&quot;&gt;Descripción&lt;/font&gt;" style="ellipse;whiteSpace=wrap;html=1;" vertex="1" parent="1">
          <mxGeometry x="3560" y="2325" width="120" height="80" as="geometry" />
        </mxCell>
        <mxCell id="ijTgKgx0f9xJTF1soomq-91" value="" style="rhombus;whiteSpace=wrap;html=1;" vertex="1" parent="1">
          <mxGeometry x="3170" y="1990" width="100" height="100" as="geometry" />
        </mxCell>
        <mxCell id="ijTgKgx0f9xJTF1soomq-93" value="&lt;font style=&quot;font-size: 18px;&quot;&gt;Genera&lt;/font&gt;" style="rhombus;whiteSpace=wrap;html=1;" vertex="1" parent="1">
          <mxGeometry x="3180" y="2000" width="80" height="80" as="geometry" />
        </mxCell>
        <mxCell id="ijTgKgx0f9xJTF1soomq-105" style="edgeStyle=orthogonalEdgeStyle;rounded=0;orthogonalLoop=1;jettySize=auto;html=1;exitX=0.5;exitY=1;exitDx=0;exitDy=0;entryX=0.5;entryY=0;entryDx=0;entryDy=0;" edge="1" parent="1" source="ijTgKgx0f9xJTF1soomq-98" target="ijTgKgx0f9xJTF1soomq-103">
          <mxGeometry relative="1" as="geometry" />
        </mxCell>
        <mxCell id="ijTgKgx0f9xJTF1soomq-98" value="&lt;font style=&quot;font-size: 18px;&quot;&gt;Realiza&lt;/font&gt;" style="shape=rhombus;perimeter=rhombusPerimeter;whiteSpace=wrap;html=1;align=center;" vertex="1" parent="1">
          <mxGeometry x="3360" y="2270" width="120" height="60" as="geometry" />
        </mxCell>
        <mxCell id="ijTgKgx0f9xJTF1soomq-109" style="edgeStyle=orthogonalEdgeStyle;rounded=0;orthogonalLoop=1;jettySize=auto;html=1;exitX=0.5;exitY=1;exitDx=0;exitDy=0;entryX=0.5;entryY=0;entryDx=0;entryDy=0;" edge="1" parent="1" source="ijTgKgx0f9xJTF1soomq-103" target="ijTgKgx0f9xJTF1soomq-106">
          <mxGeometry relative="1" as="geometry" />
        </mxCell>
        <mxCell id="ijTgKgx0f9xJTF1soomq-110" style="edgeStyle=orthogonalEdgeStyle;rounded=0;orthogonalLoop=1;jettySize=auto;html=1;exitX=0.5;exitY=1;exitDx=0;exitDy=0;entryX=0.5;entryY=0;entryDx=0;entryDy=0;" edge="1" parent="1" source="ijTgKgx0f9xJTF1soomq-103" target="ijTgKgx0f9xJTF1soomq-107">
          <mxGeometry relative="1" as="geometry" />
        </mxCell>
        <mxCell id="ijTgKgx0f9xJTF1soomq-111" style="edgeStyle=orthogonalEdgeStyle;rounded=0;orthogonalLoop=1;jettySize=auto;html=1;exitX=0.5;exitY=1;exitDx=0;exitDy=0;entryX=0.5;entryY=0;entryDx=0;entryDy=0;" edge="1" parent="1" source="ijTgKgx0f9xJTF1soomq-103" target="ijTgKgx0f9xJTF1soomq-108">
          <mxGeometry relative="1" as="geometry" />
        </mxCell>
        <mxCell id="ijTgKgx0f9xJTF1soomq-103" value="&lt;font style=&quot;font-size: 18px;&quot;&gt;Canal transaccional&lt;/font&gt;" style="rounded=0;whiteSpace=wrap;html=1;" vertex="1" parent="1">
          <mxGeometry x="3360" y="2390" width="120" height="60" as="geometry" />
        </mxCell>
        <mxCell id="ijTgKgx0f9xJTF1soomq-106" value="&lt;font style=&quot;font-size: 18px;&quot;&gt;ID&lt;/font&gt;" style="ellipse;whiteSpace=wrap;html=1;" vertex="1" parent="1">
          <mxGeometry x="3210" y="2510" width="120" height="80" as="geometry" />
        </mxCell>
        <mxCell id="ijTgKgx0f9xJTF1soomq-107" value="&lt;font style=&quot;font-size: 18px;&quot;&gt;Fecha&lt;/font&gt;" style="ellipse;whiteSpace=wrap;html=1;" vertex="1" parent="1">
          <mxGeometry x="3360" y="2510" width="120" height="80" as="geometry" />
        </mxCell>
        <mxCell id="ijTgKgx0f9xJTF1soomq-108" value="&lt;font style=&quot;font-size: 18px;&quot;&gt;Nombre&lt;/font&gt;" style="ellipse;whiteSpace=wrap;html=1;" vertex="1" parent="1">
          <mxGeometry x="3510" y="2510" width="120" height="80" as="geometry" />
        </mxCell>
        <mxCell id="ijTgKgx0f9xJTF1soomq-112" value="&lt;font style=&quot;font-size: 18px;&quot;&gt;Tipo&lt;/font&gt;" style="ellipse;whiteSpace=wrap;html=1;" vertex="1" parent="1">
          <mxGeometry x="3440" y="1580" width="120" height="80" as="geometry" />
        </mxCell>
        <mxCell id="ijTgKgx0f9xJTF1soomq-113" value="&lt;font style=&quot;font-size: 18px;&quot;&gt;Número de cuenta&lt;/font&gt;" style="ellipse;whiteSpace=wrap;html=1;" vertex="1" parent="1">
          <mxGeometry x="3310" y="1580" width="120" height="80" as="geometry" />
        </mxCell>
        <mxCell id="ijTgKgx0f9xJTF1soomq-114" value="&lt;font style=&quot;font-size: 18px;&quot;&gt;Saldo&lt;/font&gt;" style="ellipse;whiteSpace=wrap;html=1;" vertex="1" parent="1">
          <mxGeometry x="3180" y="1580" width="120" height="80" as="geometry" />
        </mxCell>
        <mxCell id="ijTgKgx0f9xJTF1soomq-115" value="&lt;font style=&quot;font-size: 18px;&quot;&gt;Estado&lt;/font&gt;" style="ellipse;whiteSpace=wrap;html=1;" vertex="1" parent="1">
          <mxGeometry x="3050" y="1580" width="120" height="80" as="geometry" />
        </mxCell>
        <mxCell id="ijTgKgx0f9xJTF1soomq-116" value="&lt;font style=&quot;font-size: 18px;&quot;&gt;Elaboración&lt;/font&gt;" style="ellipse;whiteSpace=wrap;html=1;" vertex="1" parent="1">
          <mxGeometry x="2915" y="1580" width="120" height="80" as="geometry" />
        </mxCell>
        <mxCell id="ijTgKgx0f9xJTF1soomq-128" style="edgeStyle=orthogonalEdgeStyle;rounded=0;orthogonalLoop=1;jettySize=auto;html=1;exitX=1;exitY=0.5;exitDx=0;exitDy=0;entryX=0;entryY=0.5;entryDx=0;entryDy=0;" edge="1" parent="1" source="ijTgKgx0f9xJTF1soomq-124" target="ijTgKgx0f9xJTF1soomq-126">
          <mxGeometry relative="1" as="geometry" />
        </mxCell>
        <mxCell id="ijTgKgx0f9xJTF1soomq-124" value="&lt;font style=&quot;font-size: 18px;&quot;&gt;Administra&lt;/font&gt;" style="shape=rhombus;perimeter=rhombusPerimeter;whiteSpace=wrap;html=1;align=center;" vertex="1" parent="1">
          <mxGeometry x="3610" y="1930" width="130" height="90" as="geometry" />
        </mxCell>
        <mxCell id="ijTgKgx0f9xJTF1soomq-148" style="edgeStyle=orthogonalEdgeStyle;rounded=0;orthogonalLoop=1;jettySize=auto;html=1;exitX=0.5;exitY=0;exitDx=0;exitDy=0;entryX=0.5;entryY=1;entryDx=0;entryDy=0;" edge="1" parent="1" source="ijTgKgx0f9xJTF1soomq-126" target="ijTgKgx0f9xJTF1soomq-147">
          <mxGeometry relative="1" as="geometry" />
        </mxCell>
        <mxCell id="ijTgKgx0f9xJTF1soomq-166" style="edgeStyle=orthogonalEdgeStyle;rounded=0;orthogonalLoop=1;jettySize=auto;html=1;exitX=0.75;exitY=1;exitDx=0;exitDy=0;entryX=0;entryY=0.5;entryDx=0;entryDy=0;" edge="1" parent="1" source="ijTgKgx0f9xJTF1soomq-126" target="ijTgKgx0f9xJTF1soomq-134">
          <mxGeometry relative="1" as="geometry">
            <Array as="points">
              <mxPoint x="3920" y="2120" />
            </Array>
          </mxGeometry>
        </mxCell>
        <mxCell id="ijTgKgx0f9xJTF1soomq-167" style="edgeStyle=orthogonalEdgeStyle;rounded=0;orthogonalLoop=1;jettySize=auto;html=1;exitX=0.75;exitY=1;exitDx=0;exitDy=0;entryX=0;entryY=0.5;entryDx=0;entryDy=0;" edge="1" parent="1" source="ijTgKgx0f9xJTF1soomq-126" target="ijTgKgx0f9xJTF1soomq-133">
          <mxGeometry relative="1" as="geometry" />
        </mxCell>
        <mxCell id="ijTgKgx0f9xJTF1soomq-168" style="edgeStyle=orthogonalEdgeStyle;rounded=0;orthogonalLoop=1;jettySize=auto;html=1;exitX=0.75;exitY=1;exitDx=0;exitDy=0;entryX=0;entryY=0.5;entryDx=0;entryDy=0;" edge="1" parent="1" source="ijTgKgx0f9xJTF1soomq-126" target="ijTgKgx0f9xJTF1soomq-132">
          <mxGeometry relative="1" as="geometry" />
        </mxCell>
        <mxCell id="ijTgKgx0f9xJTF1soomq-126" value="&lt;font style=&quot;font-size: 18px;&quot;&gt;Sucursal&lt;/font&gt;" style="rounded=0;whiteSpace=wrap;html=1;" vertex="1" parent="1">
          <mxGeometry x="3830" y="1945" width="120" height="60" as="geometry" />
        </mxCell>
        <mxCell id="ijTgKgx0f9xJTF1soomq-131" style="edgeStyle=orthogonalEdgeStyle;rounded=0;orthogonalLoop=1;jettySize=auto;html=1;exitX=1;exitY=0.5;exitDx=0;exitDy=0;entryX=0.5;entryY=1;entryDx=0;entryDy=0;" edge="1" parent="1" source="ijTgKgx0f9xJTF1soomq-129" target="ijTgKgx0f9xJTF1soomq-126">
          <mxGeometry relative="1" as="geometry" />
        </mxCell>
        <mxCell id="ijTgKgx0f9xJTF1soomq-129" value="&lt;font style=&quot;font-size: 18px;&quot;&gt;Se realiza&lt;/font&gt;" style="shape=rhombus;perimeter=rhombusPerimeter;whiteSpace=wrap;html=1;align=center;" vertex="1" parent="1">
          <mxGeometry x="3610" y="2050" width="130" height="90" as="geometry" />
        </mxCell>
        <mxCell id="ijTgKgx0f9xJTF1soomq-132" value="&lt;font style=&quot;font-size: 18px;&quot;&gt;ID&lt;/font&gt;" style="ellipse;whiteSpace=wrap;html=1;" vertex="1" parent="1">
          <mxGeometry x="3940" y="2300" width="120" height="80" as="geometry" />
        </mxCell>
        <mxCell id="ijTgKgx0f9xJTF1soomq-133" value="&lt;font style=&quot;font-size: 18px;&quot;&gt;Dirección&lt;/font&gt;" style="ellipse;whiteSpace=wrap;html=1;" vertex="1" parent="1">
          <mxGeometry x="3940" y="2190" width="120" height="80" as="geometry" />
        </mxCell>
        <mxCell id="ijTgKgx0f9xJTF1soomq-134" value="&lt;font style=&quot;font-size: 18px;&quot;&gt;Ciudad&lt;/font&gt;" style="ellipse;whiteSpace=wrap;html=1;" vertex="1" parent="1">
          <mxGeometry x="3940" y="2080" width="120" height="80" as="geometry" />
        </mxCell>
        <mxCell id="ijTgKgx0f9xJTF1soomq-144" style="edgeStyle=orthogonalEdgeStyle;rounded=0;orthogonalLoop=1;jettySize=auto;html=1;exitX=0.5;exitY=0;exitDx=0;exitDy=0;entryX=0.5;entryY=1;entryDx=0;entryDy=0;" edge="1" parent="1" source="ijTgKgx0f9xJTF1soomq-138" target="ijTgKgx0f9xJTF1soomq-143">
          <mxGeometry relative="1" as="geometry" />
        </mxCell>
        <mxCell id="ijTgKgx0f9xJTF1soomq-138" value="&lt;font style=&quot;font-size: 18px;&quot;&gt;Tiene&lt;/font&gt;" style="shape=rhombus;perimeter=rhombusPerimeter;whiteSpace=wrap;html=1;align=center;" vertex="1" parent="1">
          <mxGeometry x="3610" y="1760" width="130" height="90" as="geometry" />
        </mxCell>
        <mxCell id="ijTgKgx0f9xJTF1soomq-164" style="edgeStyle=orthogonalEdgeStyle;rounded=0;orthogonalLoop=1;jettySize=auto;html=1;exitX=1;exitY=0.5;exitDx=0;exitDy=0;entryX=0;entryY=0.5;entryDx=0;entryDy=0;" edge="1" parent="1" source="ijTgKgx0f9xJTF1soomq-143" target="ijTgKgx0f9xJTF1soomq-163">
          <mxGeometry relative="1" as="geometry" />
        </mxCell>
        <mxCell id="ijTgKgx0f9xJTF1soomq-184" style="edgeStyle=orthogonalEdgeStyle;rounded=0;orthogonalLoop=1;jettySize=auto;html=1;exitX=0.5;exitY=0;exitDx=0;exitDy=0;entryX=0.5;entryY=1;entryDx=0;entryDy=0;" edge="1" parent="1" source="ijTgKgx0f9xJTF1soomq-143" target="ijTgKgx0f9xJTF1soomq-181">
          <mxGeometry relative="1" as="geometry" />
        </mxCell>
        <mxCell id="ijTgKgx0f9xJTF1soomq-185" style="edgeStyle=orthogonalEdgeStyle;rounded=0;orthogonalLoop=1;jettySize=auto;html=1;exitX=0.5;exitY=0;exitDx=0;exitDy=0;entryX=0.5;entryY=1;entryDx=0;entryDy=0;" edge="1" parent="1" source="ijTgKgx0f9xJTF1soomq-143" target="ijTgKgx0f9xJTF1soomq-180">
          <mxGeometry relative="1" as="geometry" />
        </mxCell>
        <mxCell id="ijTgKgx0f9xJTF1soomq-143" value="&lt;font style=&quot;font-size: 18px;&quot;&gt;Cliente&lt;/font&gt;" style="rounded=0;whiteSpace=wrap;html=1;" vertex="1" parent="1">
          <mxGeometry x="3615" y="1480" width="120" height="60" as="geometry" />
        </mxCell>
        <mxCell id="ijTgKgx0f9xJTF1soomq-160" style="edgeStyle=orthogonalEdgeStyle;rounded=0;orthogonalLoop=1;jettySize=auto;html=1;exitX=0.5;exitY=0;exitDx=0;exitDy=0;entryX=0;entryY=0.75;entryDx=0;entryDy=0;" edge="1" parent="1" source="ijTgKgx0f9xJTF1soomq-147" target="ijTgKgx0f9xJTF1soomq-150">
          <mxGeometry relative="1" as="geometry" />
        </mxCell>
        <mxCell id="ijTgKgx0f9xJTF1soomq-147" value="&lt;font style=&quot;font-size: 18px;&quot;&gt;Emplea&lt;/font&gt;" style="shape=rhombus;double=1;perimeter=rhombusPerimeter;whiteSpace=wrap;html=1;align=center;" vertex="1" parent="1">
          <mxGeometry x="3830" y="1825" width="120" height="60" as="geometry" />
        </mxCell>
        <mxCell id="ijTgKgx0f9xJTF1soomq-159" style="edgeStyle=orthogonalEdgeStyle;rounded=0;orthogonalLoop=1;jettySize=auto;html=1;exitX=0;exitY=0.25;exitDx=0;exitDy=0;entryX=0.5;entryY=1;entryDx=0;entryDy=0;" edge="1" parent="1" source="ijTgKgx0f9xJTF1soomq-150" target="ijTgKgx0f9xJTF1soomq-158">
          <mxGeometry relative="1" as="geometry" />
        </mxCell>
        <mxCell id="ijTgKgx0f9xJTF1soomq-169" style="edgeStyle=orthogonalEdgeStyle;rounded=0;orthogonalLoop=1;jettySize=auto;html=1;exitX=0.25;exitY=1;exitDx=0;exitDy=0;entryX=0;entryY=0.5;entryDx=0;entryDy=0;" edge="1" parent="1" source="ijTgKgx0f9xJTF1soomq-150" target="ijTgKgx0f9xJTF1soomq-152">
          <mxGeometry relative="1" as="geometry" />
        </mxCell>
        <mxCell id="ijTgKgx0f9xJTF1soomq-170" style="edgeStyle=orthogonalEdgeStyle;rounded=0;orthogonalLoop=1;jettySize=auto;html=1;exitX=0.25;exitY=1;exitDx=0;exitDy=0;entryX=0;entryY=0.5;entryDx=0;entryDy=0;" edge="1" parent="1" source="ijTgKgx0f9xJTF1soomq-150" target="ijTgKgx0f9xJTF1soomq-154">
          <mxGeometry relative="1" as="geometry" />
        </mxCell>
        <mxCell id="ijTgKgx0f9xJTF1soomq-171" style="edgeStyle=orthogonalEdgeStyle;rounded=0;orthogonalLoop=1;jettySize=auto;html=1;exitX=0.25;exitY=1;exitDx=0;exitDy=0;entryX=0;entryY=0.5;entryDx=0;entryDy=0;" edge="1" parent="1" source="ijTgKgx0f9xJTF1soomq-150" target="ijTgKgx0f9xJTF1soomq-153">
          <mxGeometry relative="1" as="geometry" />
        </mxCell>
        <mxCell id="ijTgKgx0f9xJTF1soomq-150" value="&lt;font style=&quot;font-size: 18px;&quot;&gt;Ejecutivo&lt;/font&gt;" style="shape=ext;margin=3;double=1;whiteSpace=wrap;html=1;align=center;" vertex="1" parent="1">
          <mxGeometry x="4045" y="1710" width="130" height="60" as="geometry" />
        </mxCell>
        <mxCell id="ijTgKgx0f9xJTF1soomq-152" value="&lt;font style=&quot;font-size: 18px;&quot;&gt;Cargo&lt;/font&gt;" style="ellipse;whiteSpace=wrap;html=1;" vertex="1" parent="1">
          <mxGeometry x="4100" y="1800" width="120" height="80" as="geometry" />
        </mxCell>
        <mxCell id="ijTgKgx0f9xJTF1soomq-153" value="&lt;font style=&quot;font-size: 18px;&quot;&gt;Rut&lt;/font&gt;" style="ellipse;whiteSpace=wrap;html=1;" vertex="1" parent="1">
          <mxGeometry x="4100" y="2000" width="120" height="80" as="geometry" />
        </mxCell>
        <mxCell id="ijTgKgx0f9xJTF1soomq-154" value="&lt;font style=&quot;font-size: 18px;&quot;&gt;Nombre&lt;/font&gt;" style="ellipse;whiteSpace=wrap;html=1;" vertex="1" parent="1">
          <mxGeometry x="4100" y="1900" width="120" height="80" as="geometry" />
        </mxCell>
        <mxCell id="ijTgKgx0f9xJTF1soomq-162" style="edgeStyle=orthogonalEdgeStyle;rounded=0;orthogonalLoop=1;jettySize=auto;html=1;exitX=1;exitY=0.5;exitDx=0;exitDy=0;entryX=0.5;entryY=1;entryDx=0;entryDy=0;" edge="1" parent="1" source="ijTgKgx0f9xJTF1soomq-158" target="ijTgKgx0f9xJTF1soomq-161">
          <mxGeometry relative="1" as="geometry" />
        </mxCell>
        <mxCell id="ijTgKgx0f9xJTF1soomq-158" value="&lt;font style=&quot;font-size: 18px;&quot;&gt;Atiende&lt;/font&gt;" style="shape=rhombus;perimeter=rhombusPerimeter;whiteSpace=wrap;html=1;align=center;" vertex="1" parent="1">
          <mxGeometry x="3825" y="1610" width="130" height="80" as="geometry" />
        </mxCell>
        <mxCell id="ijTgKgx0f9xJTF1soomq-176" style="edgeStyle=orthogonalEdgeStyle;rounded=0;orthogonalLoop=1;jettySize=auto;html=1;exitX=1;exitY=0.5;exitDx=0;exitDy=0;entryX=0;entryY=0.5;entryDx=0;entryDy=0;" edge="1" parent="1" source="ijTgKgx0f9xJTF1soomq-161" target="ijTgKgx0f9xJTF1soomq-175">
          <mxGeometry relative="1" as="geometry" />
        </mxCell>
        <mxCell id="ijTgKgx0f9xJTF1soomq-177" style="edgeStyle=orthogonalEdgeStyle;rounded=0;orthogonalLoop=1;jettySize=auto;html=1;exitX=1;exitY=0.5;exitDx=0;exitDy=0;entryX=0;entryY=0.5;entryDx=0;entryDy=0;" edge="1" parent="1" source="ijTgKgx0f9xJTF1soomq-161" target="ijTgKgx0f9xJTF1soomq-174">
          <mxGeometry relative="1" as="geometry" />
        </mxCell>
        <mxCell id="ijTgKgx0f9xJTF1soomq-178" style="edgeStyle=orthogonalEdgeStyle;rounded=0;orthogonalLoop=1;jettySize=auto;html=1;exitX=1;exitY=0.5;exitDx=0;exitDy=0;entryX=0;entryY=0.5;entryDx=0;entryDy=0;" edge="1" parent="1" source="ijTgKgx0f9xJTF1soomq-161" target="ijTgKgx0f9xJTF1soomq-173">
          <mxGeometry relative="1" as="geometry" />
        </mxCell>
        <mxCell id="ijTgKgx0f9xJTF1soomq-179" style="edgeStyle=orthogonalEdgeStyle;rounded=0;orthogonalLoop=1;jettySize=auto;html=1;exitX=1;exitY=0.5;exitDx=0;exitDy=0;entryX=0;entryY=0.5;entryDx=0;entryDy=0;" edge="1" parent="1" source="ijTgKgx0f9xJTF1soomq-161" target="ijTgKgx0f9xJTF1soomq-172">
          <mxGeometry relative="1" as="geometry" />
        </mxCell>
        <mxCell id="ijTgKgx0f9xJTF1soomq-161" value="&lt;font style=&quot;font-size: 18px;&quot;&gt;Segmento&lt;/font&gt;" style="rounded=0;whiteSpace=wrap;html=1;" vertex="1" parent="1">
          <mxGeometry x="4045" y="1480" width="120" height="60" as="geometry" />
        </mxCell>
        <mxCell id="ijTgKgx0f9xJTF1soomq-165" style="edgeStyle=orthogonalEdgeStyle;rounded=0;orthogonalLoop=1;jettySize=auto;html=1;exitX=1;exitY=0.5;exitDx=0;exitDy=0;entryX=0;entryY=0.5;entryDx=0;entryDy=0;" edge="1" parent="1" source="ijTgKgx0f9xJTF1soomq-163" target="ijTgKgx0f9xJTF1soomq-161">
          <mxGeometry relative="1" as="geometry" />
        </mxCell>
        <mxCell id="ijTgKgx0f9xJTF1soomq-163" value="&lt;font style=&quot;font-size: 18px;&quot;&gt;Pertenece&lt;/font&gt;" style="shape=rhombus;perimeter=rhombusPerimeter;whiteSpace=wrap;html=1;align=center;" vertex="1" parent="1">
          <mxGeometry x="3830" y="1470" width="130" height="80" as="geometry" />
        </mxCell>
        <mxCell id="ijTgKgx0f9xJTF1soomq-172" value="&lt;font style=&quot;font-size: 18px;&quot;&gt;Renta máxima&lt;/font&gt;" style="ellipse;whiteSpace=wrap;html=1;" vertex="1" parent="1">
          <mxGeometry x="4220" y="1700" width="120" height="80" as="geometry" />
        </mxCell>
        <mxCell id="ijTgKgx0f9xJTF1soomq-173" value="&lt;font style=&quot;font-size: 18px;&quot;&gt;Renta mínima&lt;/font&gt;" style="ellipse;whiteSpace=wrap;html=1;" vertex="1" parent="1">
          <mxGeometry x="4220" y="1600" width="120" height="80" as="geometry" />
        </mxCell>
        <mxCell id="ijTgKgx0f9xJTF1soomq-174" value="&lt;font style=&quot;font-size: 18px;&quot;&gt;Tipo&lt;/font&gt;" style="ellipse;whiteSpace=wrap;html=1;" vertex="1" parent="1">
          <mxGeometry x="4220" y="1500" width="120" height="80" as="geometry" />
        </mxCell>
        <mxCell id="ijTgKgx0f9xJTF1soomq-175" value="&lt;font style=&quot;font-size: 18px;&quot;&gt;ID&lt;/font&gt;" style="ellipse;whiteSpace=wrap;html=1;" vertex="1" parent="1">
          <mxGeometry x="4220" y="1400" width="120" height="80" as="geometry" />
        </mxCell>
        <mxCell id="ijTgKgx0f9xJTF1soomq-189" style="edgeStyle=orthogonalEdgeStyle;rounded=0;orthogonalLoop=1;jettySize=auto;html=1;exitX=0;exitY=0.5;exitDx=0;exitDy=0;entryX=1;entryY=0.5;entryDx=0;entryDy=0;" edge="1" parent="1" source="ijTgKgx0f9xJTF1soomq-180" target="ijTgKgx0f9xJTF1soomq-188">
          <mxGeometry relative="1" as="geometry">
            <Array as="points">
              <mxPoint x="3470" y="1400" />
              <mxPoint x="3470" y="1310" />
            </Array>
          </mxGeometry>
        </mxCell>
        <mxCell id="ijTgKgx0f9xJTF1soomq-190" style="edgeStyle=orthogonalEdgeStyle;rounded=0;orthogonalLoop=1;jettySize=auto;html=1;exitX=0;exitY=0.5;exitDx=0;exitDy=0;entryX=1;entryY=0.5;entryDx=0;entryDy=0;" edge="1" parent="1" source="ijTgKgx0f9xJTF1soomq-180" target="ijTgKgx0f9xJTF1soomq-187">
          <mxGeometry relative="1" as="geometry" />
        </mxCell>
        <mxCell id="ijTgKgx0f9xJTF1soomq-191" style="edgeStyle=orthogonalEdgeStyle;rounded=0;orthogonalLoop=1;jettySize=auto;html=1;exitX=0;exitY=0.5;exitDx=0;exitDy=0;entryX=1;entryY=0.5;entryDx=0;entryDy=0;" edge="1" parent="1" source="ijTgKgx0f9xJTF1soomq-180" target="ijTgKgx0f9xJTF1soomq-186">
          <mxGeometry relative="1" as="geometry">
            <Array as="points">
              <mxPoint x="3470" y="1400" />
              <mxPoint x="3470" y="1490" />
            </Array>
          </mxGeometry>
        </mxCell>
        <mxCell id="ijTgKgx0f9xJTF1soomq-180" value="" style="ellipse;whiteSpace=wrap;html=1;" vertex="1" parent="1">
          <mxGeometry x="3475" y="1360" width="120" height="80" as="geometry" />
        </mxCell>
        <mxCell id="ijTgKgx0f9xJTF1soomq-181" value="&lt;font style=&quot;font-size: 18px;&quot;&gt;Rut&lt;/font&gt;" style="ellipse;whiteSpace=wrap;html=1;" vertex="1" parent="1">
          <mxGeometry x="3615" y="1360" width="120" height="80" as="geometry" />
        </mxCell>
        <mxCell id="ijTgKgx0f9xJTF1soomq-182" value="&lt;font style=&quot;font-size: 18px;&quot;&gt;Renta&lt;/font&gt;" style="ellipse;whiteSpace=wrap;html=1;" vertex="1" parent="1">
          <mxGeometry x="3755" y="1360" width="120" height="80" as="geometry" />
        </mxCell>
        <mxCell id="ijTgKgx0f9xJTF1soomq-183" style="edgeStyle=orthogonalEdgeStyle;rounded=0;orthogonalLoop=1;jettySize=auto;html=1;exitX=0.5;exitY=0;exitDx=0;exitDy=0;entryX=0.593;entryY=1.026;entryDx=0;entryDy=0;entryPerimeter=0;" edge="1" parent="1" source="ijTgKgx0f9xJTF1soomq-143" target="ijTgKgx0f9xJTF1soomq-182">
          <mxGeometry relative="1" as="geometry" />
        </mxCell>
        <mxCell id="ijTgKgx0f9xJTF1soomq-186" value="&lt;font style=&quot;font-size: 18px;&quot;&gt;Nombre&lt;/font&gt;" style="ellipse;whiteSpace=wrap;html=1;" vertex="1" parent="1">
          <mxGeometry x="3320" y="1450" width="120" height="80" as="geometry" />
        </mxCell>
        <mxCell id="ijTgKgx0f9xJTF1soomq-187" value="&lt;font style=&quot;font-size: 18px;&quot;&gt;Apellido&lt;/font&gt;" style="ellipse;whiteSpace=wrap;html=1;" vertex="1" parent="1">
          <mxGeometry x="3320" y="1360" width="120" height="80" as="geometry" />
        </mxCell>
        <mxCell id="ijTgKgx0f9xJTF1soomq-195" style="edgeStyle=orthogonalEdgeStyle;rounded=0;orthogonalLoop=1;jettySize=auto;html=1;exitX=0;exitY=0.5;exitDx=0;exitDy=0;entryX=0;entryY=0.5;entryDx=0;entryDy=0;" edge="1" parent="1" source="ijTgKgx0f9xJTF1soomq-188" target="ijTgKgx0f9xJTF1soomq-194">
          <mxGeometry relative="1" as="geometry" />
        </mxCell>
        <mxCell id="ijTgKgx0f9xJTF1soomq-196" style="edgeStyle=orthogonalEdgeStyle;rounded=0;orthogonalLoop=1;jettySize=auto;html=1;exitX=0;exitY=0.5;exitDx=0;exitDy=0;entryX=1;entryY=0.5;entryDx=0;entryDy=0;" edge="1" parent="1" source="ijTgKgx0f9xJTF1soomq-188" target="ijTgKgx0f9xJTF1soomq-193">
          <mxGeometry relative="1" as="geometry" />
        </mxCell>
        <mxCell id="ijTgKgx0f9xJTF1soomq-188" value="" style="ellipse;whiteSpace=wrap;html=1;" vertex="1" parent="1">
          <mxGeometry x="3320" y="1270" width="120" height="80" as="geometry" />
        </mxCell>
        <mxCell id="ijTgKgx0f9xJTF1soomq-192" value="&lt;font style=&quot;font-size: 18px;&quot;&gt;Contacto&lt;/font&gt;" style="ellipse;whiteSpace=wrap;html=1;" vertex="1" parent="1">
          <mxGeometry x="3325" y="1275" width="110" height="70" as="geometry" />
        </mxCell>
        <mxCell id="ijTgKgx0f9xJTF1soomq-193" value="&lt;font style=&quot;font-size: 18px;&quot;&gt;Email&lt;/font&gt;" style="ellipse;whiteSpace=wrap;html=1;" vertex="1" parent="1">
          <mxGeometry x="3150" y="1370" width="120" height="80" as="geometry" />
        </mxCell>
        <mxCell id="ijTgKgx0f9xJTF1soomq-194" value="&lt;font style=&quot;font-size: 18px;&quot;&gt;Teléfono&lt;/font&gt;" style="ellipse;whiteSpace=wrap;html=1;direction=west;" vertex="1" parent="1">
          <mxGeometry x="3150" y="1270" width="120" height="80" as="geometry" />
        </mxCell>
        <mxCell id="ijTgKgx0f9xJTF1soomq-197" value="&lt;font style=&quot;font-size: 18px;&quot;&gt;Datos&lt;/font&gt;" style="ellipse;whiteSpace=wrap;html=1;" vertex="1" parent="1">
          <mxGeometry x="3480" y="1365" width="110" height="70" as="geometry" />
        </mxCell>
        <mxCell id="ijTgKgx0f9xJTF1soomq-198" value="&lt;font style=&quot;font-size: 18px;&quot;&gt;1:1&lt;/font&gt;" style="text;html=1;align=center;verticalAlign=middle;whiteSpace=wrap;rounded=0;" vertex="1" parent="1">
          <mxGeometry x="3140" y="2065" width="60" height="30" as="geometry" />
        </mxCell>
        <mxCell id="ijTgKgx0f9xJTF1soomq-200" value="&lt;font style=&quot;font-size: 18px;&quot;&gt;1:N&lt;/font&gt;" style="text;html=1;align=center;verticalAlign=middle;whiteSpace=wrap;rounded=0;" vertex="1" parent="1">
          <mxGeometry x="3240" y="1985" width="60" height="30" as="geometry" />
        </mxCell>
        <mxCell id="ijTgKgx0f9xJTF1soomq-201" value="&lt;font style=&quot;font-size: 18px;&quot;&gt;1:N&lt;/font&gt;" style="text;html=1;align=center;verticalAlign=middle;whiteSpace=wrap;rounded=0;" vertex="1" parent="1">
          <mxGeometry x="3240" y="2060" width="60" height="30" as="geometry" />
        </mxCell>
        <mxCell id="ijTgKgx0f9xJTF1soomq-202" value="&lt;font style=&quot;font-size: 18px;&quot;&gt;1:1&lt;/font&gt;" style="text;html=1;align=center;verticalAlign=middle;whiteSpace=wrap;rounded=0;" vertex="1" parent="1">
          <mxGeometry x="3240" y="1850" width="60" height="30" as="geometry" />
        </mxCell>
        <mxCell id="ijTgKgx0f9xJTF1soomq-203" value="&lt;font style=&quot;font-size: 18px;&quot;&gt;1:1&lt;/font&gt;" style="text;html=1;align=center;verticalAlign=middle;whiteSpace=wrap;rounded=0;" vertex="1" parent="1">
          <mxGeometry x="3695" y="1750" width="60" height="30" as="geometry" />
        </mxCell>
        <mxCell id="ijTgKgx0f9xJTF1soomq-204" value="&lt;font style=&quot;font-size: 18px;&quot;&gt;1:N&lt;/font&gt;" style="text;html=1;align=center;verticalAlign=middle;whiteSpace=wrap;rounded=0;" vertex="1" parent="1">
          <mxGeometry x="3360" y="2330" width="60" height="30" as="geometry" />
        </mxCell>
        <mxCell id="ijTgKgx0f9xJTF1soomq-205" value="&lt;font style=&quot;font-size: 18px;&quot;&gt;1:N&lt;/font&gt;" style="text;html=1;align=center;verticalAlign=middle;whiteSpace=wrap;rounded=0;" vertex="1" parent="1">
          <mxGeometry x="3580" y="2110" width="60" height="30" as="geometry" />
        </mxCell>
        <mxCell id="ijTgKgx0f9xJTF1soomq-206" value="&lt;span style=&quot;font-size: 18px;&quot;&gt;N:1&lt;/span&gt;" style="text;html=1;align=center;verticalAlign=middle;whiteSpace=wrap;rounded=0;" vertex="1" parent="1">
          <mxGeometry x="3580" y="1935" width="60" height="30" as="geometry" />
        </mxCell>
        <mxCell id="ijTgKgx0f9xJTF1soomq-207" value="&lt;font style=&quot;font-size: 18px;&quot;&gt;1:N&lt;/font&gt;" style="text;html=1;align=center;verticalAlign=middle;whiteSpace=wrap;rounded=0;" vertex="1" parent="1">
          <mxGeometry x="3900" y="1880" width="60" height="30" as="geometry" />
        </mxCell>
        <mxCell id="ijTgKgx0f9xJTF1soomq-208" value="&lt;font style=&quot;font-size: 18px;&quot;&gt;1:1&lt;/font&gt;" style="text;html=1;align=center;verticalAlign=middle;whiteSpace=wrap;rounded=0;" vertex="1" parent="1">
          <mxGeometry x="3920" y="1670" width="60" height="30" as="geometry" />
        </mxCell>
        <mxCell id="ijTgKgx0f9xJTF1soomq-209" value="&lt;font style=&quot;font-size: 18px;&quot;&gt;1:N&lt;/font&gt;" style="text;html=1;align=center;verticalAlign=middle;whiteSpace=wrap;rounded=0;" vertex="1" parent="1">
          <mxGeometry x="3920" y="1460" width="60" height="30" as="geometry" />
        </mxCell>
      </root>
    </mxGraphModel>
  </diagram>
</mxfile>
